<svg id="svg" version="1.1" xmlns="http://www.w3.org/2000/svg" xmlns:xlink="http://www.w3.org/1999/xlink" width="400" height="272.56538675570397" viewBox="0, 0, 400,272.56538675570397"><g id="svgg"><path id="path0" d="M321.333 0.522 C 312.491 2.259,305.728 4.201,299.083 6.911 C 292.203 9.718,285.550 13.299,280.495 16.917 C 280.239 17.100,279.554 17.582,278.973 17.987 C 270.769 23.707,261.778 32.898,253.037 44.500 C 246.597 53.048,243.895 56.142,242.212 56.898 L 241.511 57.212 238.464 56.624 C 234.363 55.831,231.950 55.519,227.250 55.173 C 225.967 55.078,223.904 54.926,222.667 54.833 C 219.687 54.611,182.090 54.610,178.667 54.832 C 168.573 55.486,165.937 55.781,160.674 56.847 C 158.625 57.263,158.123 57.250,157.372 56.766 C 155.889 55.810,152.866 52.297,147.985 45.854 C 145.171 42.141,144.518 41.304,141.709 37.803 C 137.151 32.123,129.067 24.038,124.656 20.750 C 124.410 20.567,123.778 20.079,123.252 19.667 C 118.265 15.759,110.922 11.357,104.750 8.578 C 101.428 7.082,95.277 4.754,93.083 4.162 C 92.808 4.088,92.058 3.866,91.417 3.669 C 90.133 3.275,84.190 1.745,83.000 1.503 C 82.587 1.419,81.350 1.156,80.250 0.919 C 75.035 -0.207,73.376 0.300,71.122 3.707 C 70.242 5.038,67.865 9.636,67.266 11.167 C 67.105 11.579,66.872 12.142,66.748 12.417 C 65.066 16.169,62.411 25.902,61.486 31.708 C 61.402 32.235,61.258 33.135,61.165 33.708 C 58.877 47.898,58.553 68.642,60.335 86.833 C 61.202 95.686,61.678 99.683,62.667 106.417 C 62.747 106.967,62.897 108.017,62.999 108.750 C 63.195 110.161,63.370 111.268,63.663 112.938 L 63.842 113.959 62.656 116.438 C 58.987 124.105,56.577 130.503,54.191 138.917 C 53.377 141.787,51.788 149.106,51.422 151.667 C 51.242 152.932,51.001 154.819,50.743 156.988 C 50.442 159.516,50.875 159.253,47.377 159.030 C 45.749 158.926,42.954 158.763,41.167 158.667 C 39.379 158.572,36.642 158.421,35.083 158.332 C 33.525 158.244,30.900 158.096,29.250 158.004 C 27.600 157.912,24.938 157.762,23.333 157.671 C 21.729 157.581,18.954 157.428,17.167 157.331 C 15.379 157.235,12.792 157.079,11.417 156.984 C 0.674 156.241,-0.654 157.168,0.312 164.738 C 0.407 165.478,0.566 166.833,0.665 167.750 C 0.765 168.667,0.915 169.979,0.999 170.667 C 1.082 171.354,1.234 172.742,1.336 173.750 C 1.848 178.804,2.347 180.322,3.793 181.217 C 5.056 182.000,5.265 182.028,13.250 182.496 C 14.900 182.593,17.375 182.744,18.750 182.833 C 20.125 182.921,22.563 183.072,24.167 183.167 C 26.942 183.333,29.293 183.479,34.917 183.835 C 36.292 183.922,38.729 184.073,40.333 184.170 C 41.938 184.267,44.262 184.416,45.500 184.502 C 46.737 184.587,48.637 184.705,49.720 184.763 C 50.977 184.830,51.710 184.937,51.745 185.059 C 51.775 185.164,52.108 186.525,52.484 188.083 C 53.255 191.271,53.914 193.389,55.153 196.656 C 56.051 199.026,56.051 199.061,55.167 199.267 C 54.743 199.366,53.221 199.798,51.417 200.333 C 50.867 200.496,49.892 200.780,49.250 200.963 C 46.976 201.611,45.735 201.967,44.500 202.322 C 43.813 202.520,42.725 202.830,42.083 203.011 C 41.442 203.192,40.692 203.410,40.417 203.495 C 40.142 203.579,36.992 204.482,33.417 205.500 C 29.842 206.518,26.692 207.421,26.417 207.505 C 26.142 207.590,25.354 207.820,24.667 208.015 C 23.979 208.211,22.929 208.512,22.333 208.684 C 21.738 208.855,19.113 209.601,16.500 210.340 C 9.057 212.446,8.591 212.664,7.656 214.476 C 6.833 216.071,7.132 217.253,11.396 229.250 C 11.624 229.892,12.121 231.317,12.500 232.417 C 14.501 238.222,15.117 239.014,17.734 239.134 C 19.008 239.192,19.046 239.181,30.667 235.168 C 32.546 234.520,35.358 233.550,36.917 233.014 C 38.475 232.478,40.425 231.803,41.250 231.513 C 42.075 231.224,43.275 230.806,43.917 230.585 C 44.558 230.364,46.283 229.764,47.750 229.251 C 49.217 228.739,50.942 228.139,51.583 227.918 C 52.225 227.697,53.950 227.098,55.417 226.585 C 56.883 226.073,59.358 225.215,60.917 224.680 C 62.475 224.144,64.425 223.469,65.250 223.179 C 66.075 222.890,67.561 222.380,68.552 222.046 L 70.353 221.440 73.802 224.856 C 77.045 228.068,78.803 229.696,80.078 230.667 C 85.490 234.787,88.206 236.657,92.632 239.307 C 94.034 240.147,95.217 240.833,95.261 240.833 C 95.304 240.833,95.620 241.008,95.962 241.221 C 96.304 241.435,97.258 241.972,98.083 242.416 C 98.908 242.859,100.258 243.590,101.083 244.041 C 103.392 245.300,116.989 252.000,117.238 252.000 C 117.270 252.000,118.093 252.375,119.067 252.833 C 120.041 253.292,120.869 253.667,120.907 253.667 C 120.945 253.667,121.525 253.919,122.196 254.228 C 122.867 254.537,123.979 255.033,124.667 255.331 C 125.354 255.628,126.313 256.051,126.797 256.269 C 127.281 256.488,127.710 256.667,127.750 256.667 C 127.790 256.667,128.219 256.847,128.703 257.068 C 133.313 259.172,148.633 264.710,153.417 266.002 C 153.692 266.076,154.554 266.328,155.333 266.560 C 156.737 266.979,157.585 267.215,160.000 267.860 C 162.455 268.515,163.584 268.788,166.750 269.494 C 169.424 270.091,171.366 270.470,174.000 270.910 C 175.421 271.147,176.996 271.411,177.500 271.496 C 178.004 271.580,179.129 271.732,180.000 271.832 C 180.871 271.932,182.146 272.105,182.833 272.215 C 184.694 272.515,214.058 272.499,216.583 272.197 C 222.859 271.447,228.243 270.536,233.583 269.324 C 236.686 268.619,237.147 268.511,237.833 268.333 C 238.154 268.250,238.717 268.115,239.083 268.034 C 239.450 267.952,240.500 267.678,241.417 267.424 C 242.976 266.993,243.796 266.759,246.500 265.970 C 248.053 265.516,257.765 262.339,258.663 261.991 C 259.077 261.830,259.867 261.534,260.417 261.333 C 260.967 261.132,261.567 260.907,261.750 260.833 C 261.933 260.760,262.533 260.533,263.083 260.331 C 263.633 260.128,264.320 259.858,264.609 259.731 C 264.897 259.604,265.197 259.497,265.275 259.494 C 265.353 259.491,265.717 259.344,266.083 259.167 C 266.450 258.990,266.814 258.842,266.891 258.839 C 266.969 258.836,267.269 258.725,267.558 258.592 C 267.847 258.459,268.758 258.076,269.583 257.741 C 270.408 257.405,271.398 256.989,271.783 256.815 C 272.167 256.642,272.518 256.500,272.563 256.500 C 272.607 256.500,273.117 256.282,273.697 256.016 C 274.276 255.750,276.137 254.916,277.833 254.163 C 279.529 253.409,281.766 252.390,282.805 251.897 C 283.844 251.403,284.715 251.000,284.742 251.000 C 284.840 251.000,289.518 248.758,292.490 247.287 C 296.179 245.460,301.196 242.827,303.641 241.435 C 304.223 241.104,304.725 240.833,304.757 240.833 C 305.564 240.833,316.578 233.353,320.276 230.294 C 320.749 229.903,321.649 229.159,322.276 228.640 C 322.903 228.121,324.803 226.303,326.498 224.598 C 328.193 222.894,329.679 221.500,329.799 221.500 C 329.919 221.500,330.783 221.758,331.717 222.073 C 337.071 223.877,339.955 224.866,340.250 225.001 C 340.532 225.130,343.262 226.075,347.000 227.338 C 347.504 227.508,349.117 228.068,350.583 228.582 C 352.050 229.096,353.775 229.697,354.417 229.916 C 355.058 230.136,356.033 230.478,356.583 230.677 C 357.133 230.875,358.783 231.444,360.250 231.942 C 361.717 232.440,363.067 232.916,363.250 233.000 C 363.433 233.085,364.371 233.416,365.333 233.736 C 367.088 234.319,373.441 236.505,376.250 237.493 C 381.558 239.359,382.312 239.492,383.747 238.817 C 384.882 238.284,386.500 236.134,386.500 235.159 C 386.500 235.069,386.573 234.865,386.662 234.706 C 386.751 234.547,387.130 233.517,387.504 232.417 C 387.879 231.317,388.327 230.042,388.500 229.583 C 388.673 229.125,389.148 227.775,389.556 226.583 C 389.963 225.392,390.459 223.967,390.659 223.417 C 393.632 215.210,393.316 213.226,388.813 211.830 C 386.412 211.086,383.654 210.277,381.917 209.808 C 381.550 209.709,381.063 209.570,380.833 209.500 C 380.604 209.430,380.117 209.291,379.750 209.192 C 379.383 209.093,378.540 208.857,377.877 208.667 C 377.213 208.478,376.145 208.173,375.503 207.990 C 374.862 207.806,373.812 207.506,373.170 207.323 C 372.058 207.005,370.788 206.637,368.583 205.994 C 367.595 205.706,366.227 205.313,364.040 204.691 C 363.422 204.515,362.372 204.215,361.707 204.024 C 361.041 203.833,359.954 203.522,359.290 203.332 C 358.626 203.142,357.746 202.887,357.333 202.765 C 356.921 202.643,353.749 201.734,350.284 200.746 C 344.959 199.227,344.002 198.907,344.097 198.682 C 345.531 195.310,347.801 187.887,348.203 185.253 C 348.263 184.859,349.000 184.691,350.724 184.676 C 351.351 184.671,352.739 184.595,353.807 184.507 C 354.876 184.419,357.063 184.268,358.667 184.170 C 360.271 184.073,362.708 183.922,364.083 183.834 C 365.458 183.747,367.858 183.596,369.417 183.500 C 370.975 183.404,373.375 183.254,374.750 183.167 C 376.125 183.080,378.525 182.929,380.083 182.832 C 381.642 182.735,383.967 182.586,385.250 182.501 C 386.533 182.416,388.821 182.267,390.333 182.171 C 395.124 181.865,396.089 181.619,397.130 180.433 C 397.899 179.557,398.083 178.780,398.671 173.917 C 399.086 170.486,399.162 169.840,399.338 168.250 C 399.439 167.333,399.591 166.021,399.675 165.333 C 400.312 160.133,399.914 158.481,397.743 157.301 C 396.359 156.548,395.806 156.543,384.417 157.170 C 382.950 157.251,380.325 157.396,378.583 157.492 C 375.062 157.686,371.100 157.909,366.583 158.168 C 364.933 158.262,362.308 158.408,360.750 158.492 C 359.192 158.576,356.379 158.739,354.500 158.855 C 352.621 158.971,350.748 159.069,350.337 159.074 L 349.591 159.083 349.385 157.500 C 349.272 156.629,349.095 155.242,348.992 154.417 C 348.889 153.592,348.627 151.867,348.411 150.583 C 347.595 145.740,346.917 142.819,345.087 136.250 C 344.502 134.149,341.550 125.681,341.313 125.425 C 341.232 125.338,341.167 125.168,341.167 125.048 C 341.167 124.928,341.026 124.512,340.855 124.123 C 340.683 123.735,340.336 122.929,340.084 122.333 C 339.110 120.036,337.644 116.850,336.801 115.196 C 336.226 114.070,336.190 113.916,336.329 113.196 C 336.529 112.163,336.992 109.192,337.333 106.750 C 337.436 106.017,337.587 104.967,337.669 104.417 C 337.837 103.286,338.062 101.534,338.660 96.708 C 338.950 94.367,339.420 89.830,339.665 87.000 C 339.764 85.854,339.915 84.129,340.000 83.167 C 340.152 81.437,340.351 78.165,340.670 72.167 C 341.092 64.231,340.777 50.493,339.990 42.500 C 339.662 39.175,339.014 34.203,338.665 32.333 C 338.588 31.921,338.439 31.096,338.333 30.500 C 336.697 21.259,333.253 10.846,330.134 5.705 C 329.785 5.131,329.500 4.624,329.500 4.580 C 329.500 4.535,329.151 3.993,328.726 3.374 C 326.631 0.334,325.166 -0.231,321.333 0.522 M324.759 4.415 C 325.508 5.209,326.950 7.664,328.140 10.168 C 337.418 29.705,339.414 63.097,333.744 103.917 C 333.332 106.882,333.192 107.799,332.492 112.134 L 332.134 114.351 333.801 117.801 C 340.660 131.999,344.837 147.104,345.757 161.034 C 345.819 161.983,345.948 162.721,346.068 162.820 C 346.271 162.989,349.043 162.895,355.583 162.496 C 357.142 162.401,359.767 162.252,361.417 162.165 C 363.067 162.078,365.767 161.929,367.417 161.834 C 370.946 161.630,375.240 161.390,379.417 161.163 C 381.067 161.073,383.617 160.929,385.083 160.843 C 396.646 160.167,396.278 160.145,396.102 161.493 C 396.047 161.909,395.923 163.000,395.826 163.917 C 395.114 170.624,394.371 176.906,394.235 177.363 C 394.103 177.807,394.109 177.807,380.167 178.673 C 378.654 178.767,376.292 178.914,374.917 179.000 C 373.542 179.086,371.142 179.236,369.583 179.333 C 368.025 179.431,365.625 179.581,364.250 179.667 C 362.875 179.753,360.475 179.903,358.917 180.000 C 357.358 180.097,354.958 180.249,353.583 180.337 C 352.208 180.424,349.736 180.576,348.089 180.673 C 346.442 180.771,345.076 180.868,345.055 180.890 C 345.033 180.911,344.752 182.238,344.429 183.839 C 343.407 188.913,341.683 194.323,339.572 199.083 C 339.085 200.183,338.748 201.146,338.825 201.224 C 338.945 201.344,345.388 203.252,351.917 205.100 C 371.722 210.705,388.576 215.630,388.717 215.853 C 388.908 216.156,388.601 217.181,386.700 222.583 C 386.055 224.417,385.041 227.304,384.445 229.000 C 382.379 234.888,382.333 235.000,381.969 235.000 C 381.666 235.000,379.643 234.315,368.833 230.554 C 366.863 229.868,363.525 228.707,361.417 227.974 C 359.308 227.241,355.858 226.041,353.750 225.307 C 344.714 222.161,342.119 221.258,339.917 220.497 C 338.633 220.054,335.821 219.077,333.667 218.328 C 331.512 217.578,329.509 216.886,329.214 216.790 L 328.679 216.614 324.798 220.531 C 315.887 229.523,308.627 234.471,292.083 242.828 C 262.990 257.523,238.239 265.712,215.750 268.085 C 210.698 268.617,197.199 268.830,189.667 268.496 C 167.381 267.506,139.030 258.656,108.333 243.105 C 90.994 234.322,83.911 229.452,74.575 219.897 L 71.401 216.647 69.492 217.309 C 68.442 217.673,65.821 218.583,63.667 219.331 C 61.512 220.079,58.700 221.053,57.417 221.496 C 56.133 221.939,54.296 222.577,53.333 222.914 C 52.371 223.251,49.858 224.126,47.750 224.859 C 45.642 225.592,42.229 226.780,40.167 227.499 C 18.937 234.899,17.976 235.219,17.738 234.958 C 17.633 234.844,17.042 233.287,16.425 231.500 C 15.231 228.043,14.815 226.848,12.653 220.667 C 11.899 218.512,11.275 216.525,11.266 216.250 L 11.250 215.750 18.333 213.718 C 22.229 212.601,25.904 211.541,26.500 211.362 C 27.096 211.183,28.521 210.772,29.667 210.447 C 39.121 207.770,60.511 201.619,60.888 201.469 C 61.443 201.249,61.477 201.407,60.281 198.667 C 58.013 193.468,55.868 186.414,55.264 182.167 C 55.076 180.850,55.404 180.927,48.250 180.507 C 46.508 180.405,43.996 180.251,42.667 180.164 C 41.337 180.078,38.975 179.929,37.417 179.833 C 35.858 179.736,33.458 179.587,32.083 179.500 C 30.708 179.413,28.308 179.265,26.750 179.169 C 25.192 179.074,22.792 178.925,21.417 178.837 C 20.042 178.749,17.567 178.597,15.917 178.498 C 14.267 178.399,11.996 178.247,10.872 178.159 C 9.747 178.072,8.299 178.000,7.653 178.000 C 5.652 178.000,5.838 178.426,5.154 172.292 C 3.646 158.781,3.545 160.257,5.961 160.400 C 11.098 160.707,13.399 160.836,16.583 160.998 C 18.508 161.096,21.171 161.247,22.500 161.334 C 23.829 161.421,26.492 161.572,28.417 161.669 C 30.342 161.767,33.079 161.917,34.500 162.003 C 35.921 162.089,38.546 162.237,40.333 162.331 C 46.247 162.645,49.726 162.850,51.714 163.002 C 54.263 163.196,54.116 163.291,54.246 161.363 C 55.195 147.255,59.420 131.873,66.123 118.124 L 67.891 114.499 67.609 112.708 C 63.495 86.520,62.078 61.695,63.749 45.083 C 63.795 44.625,63.949 43.050,64.090 41.583 C 65.464 27.354,69.409 13.438,74.180 5.990 C 75.649 3.696,75.456 3.746,79.650 4.593 C 105.277 9.771,123.332 20.899,140.068 41.833 C 141.278 43.346,143.775 46.571,145.619 49.000 C 153.758 59.724,156.037 61.602,159.905 60.768 C 169.247 58.754,176.208 58.341,200.750 58.341 C 224.053 58.340,230.595 58.707,239.068 60.486 C 244.124 61.548,245.996 60.115,254.827 48.417 C 264.681 35.364,271.211 28.508,280.250 21.723 C 291.606 13.198,306.520 6.894,321.417 4.323 C 322.058 4.212,322.808 4.063,323.083 3.992 C 323.968 3.764,324.200 3.823,324.759 4.415 " stroke="none" fill="#040404" fill-rule="evenodd"></path><path id="path1" d="M75.750 4.197 C 74.840 4.728,72.536 8.726,70.856 12.690 C 63.923 29.052,61.462 56.899,64.343 86.391 C 64.434 87.322,64.583 88.871,64.675 89.833 C 65.241 95.781,66.469 105.107,67.586 111.946 L 67.999 114.476 66.431 117.654 C 59.894 130.906,55.509 146.342,54.491 159.689 C 54.391 161.006,54.273 162.327,54.230 162.625 C 54.138 163.259,54.354 163.235,50.833 163.001 C 48.567 162.851,46.694 162.746,38.944 162.331 C 37.217 162.239,34.554 162.090,33.027 162.001 C 31.500 161.912,28.819 161.763,27.069 161.670 C 25.320 161.578,22.620 161.427,21.069 161.335 C 4.846 160.375,4.000 160.351,4.000 160.845 C 4.000 161.132,4.586 166.588,5.511 174.917 C 5.613 175.833,5.764 176.853,5.847 177.183 L 5.999 177.782 9.041 177.979 C 12.380 178.195,15.578 178.398,19.917 178.667 C 21.475 178.763,23.875 178.913,25.250 179.000 C 26.625 179.087,29.025 179.236,30.583 179.332 C 32.142 179.427,34.598 179.579,36.042 179.669 C 40.477 179.947,43.878 180.159,46.708 180.336 C 51.840 180.656,54.584 180.857,54.859 180.935 C 55.061 180.992,55.208 181.421,55.412 182.548 C 56.305 187.491,58.133 193.491,60.223 198.344 C 60.912 199.942,61.425 201.301,61.363 201.364 C 61.256 201.471,57.270 202.623,25.138 211.834 C 13.334 215.218,11.167 215.874,11.167 216.061 C 11.167 216.088,11.622 217.416,12.179 219.013 C 12.736 220.610,13.306 222.254,13.446 222.667 C 14.209 224.922,17.399 233.997,17.591 234.458 C 17.715 234.756,17.920 235.000,18.046 235.000 C 18.232 235.000,26.440 232.196,35.833 228.922 C 41.663 226.891,62.217 219.749,65.167 218.730 C 67.137 218.048,69.261 217.306,69.885 217.079 C 70.509 216.852,71.137 216.667,71.281 216.667 C 71.426 216.667,72.973 218.136,74.720 219.932 C 84.094 229.571,91.918 234.846,110.619 244.131 C 139.353 258.399,164.207 266.318,186.333 268.255 C 190.308 268.603,208.590 268.598,212.945 268.248 C 234.100 266.546,257.444 259.392,285.500 246.012 C 305.808 236.327,315.579 229.908,325.420 219.786 L 328.625 216.489 332.188 217.727 C 334.147 218.408,336.087 219.080,336.500 219.221 C 336.912 219.362,339.650 220.315,342.583 221.338 C 345.517 222.362,348.967 223.559,350.250 223.999 C 351.533 224.440,354.083 225.324,355.917 225.965 C 360.655 227.621,374.447 232.418,378.555 233.839 C 380.481 234.505,382.087 234.975,382.162 234.895 C 382.383 234.658,383.609 231.245,387.321 220.533 C 388.061 218.397,388.667 216.441,388.667 216.186 C 388.667 215.647,392.342 216.760,359.354 207.310 C 347.583 203.938,338.757 201.329,338.710 201.207 C 338.665 201.089,338.784 200.639,338.974 200.205 C 339.164 199.771,339.665 198.629,340.088 197.667 C 341.673 194.055,343.638 187.626,344.416 183.500 C 344.989 180.467,344.380 180.824,349.500 180.513 C 351.104 180.415,353.579 180.261,355.000 180.170 C 361.290 179.769,363.238 179.645,365.583 179.499 C 366.958 179.413,369.358 179.264,370.917 179.167 C 372.475 179.069,374.875 178.920,376.250 178.834 C 388.267 178.086,394.032 177.690,394.116 177.607 C 394.315 177.408,396.091 161.144,395.953 160.785 C 395.805 160.398,394.044 160.407,386.665 160.829 C 383.503 161.009,379.492 161.234,377.750 161.328 C 376.008 161.421,373.308 161.574,371.750 161.667 C 370.192 161.760,367.562 161.909,365.907 161.999 C 358.410 162.405,356.437 162.516,352.557 162.750 C 347.644 163.047,346.059 163.064,345.909 162.821 C 345.848 162.723,345.691 161.317,345.559 159.696 C 344.434 145.887,339.906 130.117,333.257 116.847 C 331.980 114.300,332.011 114.708,332.740 110.068 C 334.602 98.212,335.737 87.747,336.535 75.083 C 336.826 70.448,336.822 52.855,336.527 49.000 C 334.993 28.894,331.372 14.543,325.599 5.681 C 324.277 3.651,324.519 3.666,317.583 5.190 C 291.600 10.899,273.964 23.011,255.250 48.000 C 245.811 60.604,244.369 61.629,237.883 60.345 C 234.364 59.649,230.499 59.207,223.184 58.665 C 220.222 58.446,181.316 58.447,177.962 58.667 C 169.519 59.219,164.923 59.756,160.838 60.666 C 155.890 61.768,154.042 60.310,144.673 47.917 C 130.388 29.019,118.653 18.972,102.367 11.695 C 95.512 8.632,84.834 5.446,77.417 4.251 C 77.050 4.192,76.600 4.112,76.417 4.073 C 76.233 4.034,75.933 4.090,75.750 4.197 " stroke="none" fill="#fbfbfb" fill-rule="evenodd"></path><path id="path2" d="M130.667 31.417 C 131.993 32.746,133.117 33.833,133.162 33.833 C 133.208 33.833,132.160 32.746,130.833 31.417 C 129.507 30.087,128.383 29.000,128.338 29.000 C 128.292 29.000,129.340 30.087,130.667 31.417 M269.331 31.292 L 267.083 33.583 269.375 31.336 C 270.635 30.099,271.667 29.068,271.667 29.044 C 271.667 28.924,271.419 29.163,269.331 31.292 M336.372 47.500 C 336.372 47.821,336.406 47.952,336.448 47.792 C 336.490 47.631,336.490 47.369,336.448 47.208 C 336.406 47.048,336.372 47.179,336.372 47.500 M336.714 53.583 C 336.716 54.042,336.748 54.209,336.786 53.956 C 336.825 53.703,336.824 53.328,336.784 53.123 C 336.744 52.918,336.713 53.125,336.714 53.583 M63.209 55.083 C 63.211 55.450,63.245 55.580,63.285 55.373 C 63.324 55.166,63.323 54.866,63.281 54.706 C 63.239 54.547,63.207 54.717,63.209 55.083 M247.500 57.417 C 246.817 58.104,246.296 58.667,246.342 58.667 C 246.388 58.667,246.984 58.104,247.667 57.417 C 248.350 56.729,248.871 56.167,248.825 56.167 C 248.779 56.167,248.183 56.729,247.500 57.417 M189.219 58.458 C 190.944 58.485,193.719 58.485,195.386 58.458 C 197.053 58.431,195.642 58.409,192.250 58.409 C 188.858 58.409,187.494 58.431,189.219 58.458 M203.292 58.458 C 205.515 58.484,209.152 58.484,211.375 58.458 C 213.598 58.432,211.779 58.410,207.333 58.410 C 202.887 58.410,201.069 58.432,203.292 58.458 M63.223 69.167 C 63.223 69.854,63.252 70.135,63.288 69.792 C 63.324 69.448,63.324 68.885,63.288 68.542 C 63.252 68.198,63.223 68.479,63.223 69.167 M336.718 70.083 C 336.719 70.633,336.750 70.838,336.787 70.539 C 336.825 70.239,336.824 69.789,336.786 69.539 C 336.748 69.288,336.717 69.533,336.718 70.083 M63.545 76.833 C 63.545 77.246,63.578 77.415,63.618 77.208 C 63.657 77.002,63.657 76.665,63.618 76.458 C 63.578 76.252,63.545 76.421,63.545 76.833 M336.372 77.167 C 336.372 77.487,336.406 77.619,336.448 77.458 C 336.490 77.298,336.490 77.035,336.448 76.875 C 336.406 76.715,336.372 76.846,336.372 77.167 M4.458 160.451 C 4.665 160.491,5.002 160.491,5.208 160.451 C 5.415 160.411,5.246 160.379,4.833 160.379 C 4.421 160.379,4.252 160.411,4.458 160.451 M393.958 160.454 C 394.256 160.491,394.744 160.491,395.042 160.454 C 395.340 160.417,395.096 160.387,394.500 160.387 C 393.904 160.387,393.660 160.417,393.958 160.454 M72.333 217.583 C 72.644 217.904,72.936 218.167,72.982 218.167 C 73.028 218.167,72.811 217.904,72.500 217.583 C 72.189 217.262,71.897 217.000,71.851 217.000 C 71.805 217.000,72.022 217.262,72.333 217.583 M323.997 221.292 L 322.250 223.083 324.042 221.336 C 325.027 220.375,325.833 219.569,325.833 219.545 C 325.833 219.424,325.620 219.628,323.997 221.292 M75.833 221.250 C 76.701 222.121,77.448 222.833,77.493 222.833 C 77.539 222.833,76.867 222.121,76.000 221.250 C 75.133 220.379,74.386 219.667,74.340 219.667 C 74.294 219.667,74.966 220.379,75.833 221.250 " stroke="none" fill="#9e9e9e" fill-rule="evenodd"></path><path id="path3" d="M63.209 53.583 C 63.211 53.950,63.245 54.080,63.285 53.873 C 63.324 53.666,63.323 53.366,63.281 53.206 C 63.239 53.047,63.207 53.217,63.209 53.583 M182.964 58.456 C 183.448 58.490,184.198 58.490,184.631 58.456 C 185.063 58.421,184.667 58.394,183.750 58.394 C 182.833 58.395,182.480 58.423,182.964 58.456 M217.455 58.454 C 217.750 58.490,218.275 58.491,218.621 58.455 C 218.967 58.419,218.725 58.389,218.083 58.388 C 217.442 58.387,217.159 58.417,217.455 58.454 M175.460 58.785 C 175.668 58.824,175.968 58.823,176.127 58.781 C 176.286 58.739,176.117 58.707,175.750 58.709 C 175.383 58.711,175.253 58.745,175.460 58.785 M224.875 58.782 C 225.035 58.823,225.298 58.823,225.458 58.782 C 225.619 58.740,225.487 58.705,225.167 58.705 C 224.846 58.705,224.715 58.740,224.875 58.782 M6.627 177.951 C 6.834 177.991,7.134 177.990,7.294 177.948 C 7.453 177.906,7.283 177.874,6.917 177.875 C 6.550 177.877,6.420 177.911,6.627 177.951 M11.960 178.285 C 12.168 178.324,12.468 178.323,12.627 178.281 C 12.786 178.239,12.617 178.207,12.250 178.209 C 11.883 178.211,11.753 178.245,11.960 178.285 M386.208 178.282 C 386.369 178.323,386.631 178.323,386.792 178.282 C 386.952 178.240,386.821 178.205,386.500 178.205 C 386.179 178.205,386.048 178.240,386.208 178.282 M17.294 178.618 C 17.501 178.658,17.801 178.656,17.960 178.615 C 18.120 178.573,17.950 178.540,17.583 178.542 C 17.217 178.544,17.086 178.578,17.294 178.618 M380.960 178.618 C 381.168 178.658,381.468 178.656,381.627 178.615 C 381.786 178.573,381.617 178.540,381.250 178.542 C 380.883 178.544,380.753 178.578,380.960 178.618 M22.625 178.951 C 22.831 178.991,23.169 178.991,23.375 178.951 C 23.581 178.911,23.412 178.879,23.000 178.879 C 22.587 178.879,22.419 178.911,22.625 178.951 M375.627 178.951 C 375.834 178.991,376.134 178.990,376.294 178.948 C 376.453 178.906,376.283 178.874,375.917 178.875 C 375.550 178.877,375.420 178.911,375.627 178.951 M28.127 179.285 C 28.334 179.324,28.634 179.323,28.794 179.281 C 28.953 179.239,28.783 179.207,28.417 179.209 C 28.050 179.211,27.920 179.245,28.127 179.285 M370.294 179.285 C 370.501 179.324,370.801 179.323,370.960 179.281 C 371.120 179.239,370.950 179.207,370.583 179.209 C 370.217 179.211,370.086 179.245,370.294 179.285 M33.460 179.618 C 33.668 179.658,33.968 179.656,34.127 179.615 C 34.286 179.573,34.117 179.540,33.750 179.542 C 33.383 179.544,33.253 179.578,33.460 179.618 M364.960 179.618 C 365.168 179.658,365.468 179.656,365.627 179.615 C 365.786 179.573,365.617 179.540,365.250 179.542 C 364.883 179.544,364.753 179.578,364.960 179.618 M38.708 179.948 C 38.869 179.990,39.131 179.990,39.292 179.948 C 39.452 179.906,39.321 179.872,39.000 179.872 C 38.679 179.872,38.548 179.906,38.708 179.948 M359.627 179.951 C 359.834 179.991,360.134 179.990,360.294 179.948 C 360.453 179.906,360.283 179.874,359.917 179.875 C 359.550 179.877,359.420 179.911,359.627 179.951 M44.042 180.282 C 44.202 180.323,44.465 180.323,44.625 180.282 C 44.785 180.240,44.654 180.205,44.333 180.205 C 44.012 180.205,43.881 180.240,44.042 180.282 M354.375 180.282 C 354.535 180.323,354.798 180.323,354.958 180.282 C 355.119 180.240,354.988 180.205,354.667 180.205 C 354.346 180.205,354.215 180.240,354.375 180.282 M49.375 180.615 C 49.535 180.657,49.798 180.657,49.958 180.615 C 50.119 180.573,49.987 180.539,49.667 180.539 C 49.346 180.539,49.215 180.573,49.375 180.615 M349.208 180.615 C 349.369 180.657,349.631 180.657,349.792 180.615 C 349.952 180.573,349.821 180.539,349.500 180.539 C 349.179 180.539,349.048 180.573,349.208 180.615 M193.458 268.624 C 194.490 268.654,196.177 268.654,197.208 268.624 C 198.240 268.595,197.396 268.571,195.333 268.571 C 193.271 268.571,192.427 268.595,193.458 268.624 M203.050 268.624 C 203.856 268.655,205.131 268.655,205.883 268.624 C 206.635 268.593,205.975 268.568,204.417 268.568 C 202.858 268.568,202.243 268.594,203.050 268.624 " stroke="none" fill="#747474" fill-rule="evenodd"></path><path id="path4" d="M215.708 58.453 C 215.960 58.491,216.373 58.491,216.625 58.453 C 216.877 58.415,216.671 58.383,216.167 58.383 C 215.662 58.383,215.456 58.415,215.708 58.453 " stroke="none" fill="#7c7c7c" fill-rule="evenodd"></path></g></svg>